<?xml version="1.0" encoding="utf-8"?>
<!-- Generator: Adobe Illustrator 16.0.0, SVG Export Plug-In . SVG Version: 6.00 Build 0)  -->
<!DOCTYPE svg PUBLIC "-//W3C//DTD SVG 1.1//EN" "http://www.w3.org/Graphics/SVG/1.1/DTD/svg11.dtd">
<svg version="1.1" id="Layer_1" xmlns="http://www.w3.org/2000/svg" xmlns:xlink="http://www.w3.org/1999/xlink" x="0px" y="0px"
	 width="164px" height="164px" viewBox="0 0 164 164" style="enable-background:new 0 0 164 164;" xml:space="preserve">
<style type="text/css">
<![CDATA[
	.st0{fill:#555555;}
	.st1{fill:#DDDDDD;}
]]>
</style>
<path class="st1" d="M164,82c0,25.9-12,49-30.7,64c-14,11.3-31.9,18-51.3,18c-19.8,0-37.9-7-52-18.6C11.7,130.4,0,107.5,0,82
	C0,36.7,36.7,0,82,0S164,36.7,164,82z"/>
<path class="st0" d="M81.6,91.1c17.8,0,32.2-14.4,32.2-32.2c0-17.8-14.4-32.2-32.2-32.2c-17.8,0-32.2,14.4-32.2,32.2
	C49.5,76.7,63.9,91.1,81.6,91.1z"/>
<path class="st0" d="M133.3,136.2v9.8c-14,11.3-31.9,18-51.3,18c-19.8,0-37.9-7-52-18.6v-9.2c0-20.5,16.5-37.1,51.6-37.1
	C118.8,99.1,133.3,115.7,133.3,136.2z"/>
</svg>
